<svg xmlns="http://www.w3.org/2000/svg" xmlns:xlink="http://www.w3.org/1999/xlink" width="183.817" height="144.155" viewBox="0 0 183.817 144.155"><defs><style>.a{fill:none;}.b,.c{opacity:0.7;}.b{fill:url(#a);}.c{fill:url(#b);}.d{clip-path:url(#c);}.e{fill:#c2c4c6;}.f{fill:#c5c7c9;}.g{fill:#c8cacb;}.h{fill:#cbccce;}.i{fill:#cdcfd0;}.j{fill:#d0d1d3;}.k{fill:#d2d3d5;}.l{fill:#d4d5d7;}.m{fill:#d6d7d9;}.n{fill:#d8d9da;}.o{fill:#dadbdc;}.p{fill:#dbdcde;}.q{fill:#dddedf;}.r{fill:#dedfe0;}.s{fill:#e0e0e2;}.t{fill:#e1e1e3;}.u{fill:#e2e3e4;}.v{fill:#e3e4e5;}.w{fill:#e4e5e6;}.x{fill:#e5e5e7;}.y{fill:#e6e6e7;}.z{fill:#e7e7e8;}.aa{fill:#e7e7e9;}.ab{fill:#e8e8e9;}.ac{fill:#e8e9ea;}.ad{fill:#e9e9ea;}.ae{fill:#eaeaeb;}.af{fill:#ebebec;}.ag{opacity:0.6;}.ah{clip-path:url(#d);}.ai{fill:#6b6c6f;}.aj{fill:#707174;}.ak{fill:#747578;}.al{fill:#78797c;}.am{fill:#7b7c7f;}.an{fill:#7e8083;}.ao{fill:#818386;}.ap{fill:#848588;}.aq{fill:#86888b;}.ar{fill:#888a8d;}.as{fill:#8a8c8f;}.at{fill:#8c8d90;}.au{fill:#8d8f92;}.av{fill:#8f9093;}.aw{fill:#909295;}.ax{fill:#919396;}.ay{fill:#929497;}.az{fill:#939598;}.ba{fill:#949699;}.bb{fill:#959699;}.bc{fill:#95979a;}.bd{fill:#96989b;}.be{fill:#97999c;}.bf{opacity:0.5;}.bg{clip-path:url(#e);}.bh{fill:#6e6f72;}.bi{fill:#737477;}.bj{fill:#75777a;}.bk{fill:#7a7b7e;}.bl{fill:#7c7e81;}.bm{fill:#808285;}.bn{fill:#828487;}.bo{fill:#848689;}.bp{fill:#88898c;}.bq{fill:#898b8e;}.br{fill:#8b8d90;}.bs{fill:#8c8e91;}.bt{fill:#8e8f92;}.bu{fill:#8f9194;}.bv{fill:#929396;}.bw{fill:#939497;}.bx{fill:#97989b;}.by{fill:#989a9d;}.bz{fill:#999b9e;}.ca{fill:#9a9c9f;}.cb{fill:#9b9da0;}.cc{fill:#9c9ea1;}.cd{fill:#9d9fa2;}.ce{fill:#9ea0a3;}.cf{fill:#9fa1a4;}.cg,.ch{opacity:0.3;}.cg{fill:url(#f);}.ci{clip-path:url(#g);}.cj{fill:#8a8c8e;}.ck{fill:#8c8e90;}.cl{fill:#8f9193;}.cm{fill:#919395;}.cn{fill:#939597;}.co{fill:#959799;}.cp{fill:#97999b;}.cq{fill:#999b9d;}.cr{fill:#9c9ea0;}.cs{fill:#9ea0a2;}.ct{fill:#a1a3a5;}.cu{fill:#a2a4a7;}.cv{fill:#a3a5a8;}.cw{fill:#a5a7a9;}.cx{fill:#a6a8aa;}.cy{fill:#a7a9ac;}.cz{fill:#a8aaad;}.da{fill:#a9abae;}.db{fill:#aaacaf;}.dc{fill:#abadb0;}.dd{fill:#acaeb0;}.de{fill:#acaeb1;}.df{fill:#adafb2;}.dg{fill:#aeb0b2;}.dh{fill:#aeb0b3;}.di{fill:#afb1b4;}.dj{fill:#b0b2b5;}.dk{fill:#b1b3b6;}.dl{fill:#fff;}</style><linearGradient id="a" x1="0.985" y1="0.5" x2="-0.005" y2="0.5" gradientUnits="objectBoundingBox"><stop offset="0" stop-color="#999"/><stop offset="0.574" stop-color="#aeaeae"/><stop offset="1" stop-color="#bababa"/></linearGradient><linearGradient id="b" y1="0.5" x2="1" y2="0.5" gradientUnits="objectBoundingBox"><stop offset="0" stop-color="#949494"/><stop offset="0.516" stop-color="#a4a4a4"/><stop offset="1" stop-color="#b0b0b0"/></linearGradient><clipPath id="c"><path class="a" d="M186.312,454.41h80.265l12.49,11.68H173.823Z" transform="translate(-173.823 -454.41)"/></clipPath><clipPath id="d"><path class="a" d="M367.19,191.171l5.357-2.534h15.666l-68.288-52.051v18.557Z" transform="translate(-319.925 -136.586)"/></clipPath><clipPath id="e"><path class="a" d="M198.615,155.144V136.586l-68.288,52.051h15.666l5.356,2.534Z" transform="translate(-130.327 -136.586)"/></clipPath><radialGradient id="f" cx="5149.648" cy="806.155" r="0.035" gradientTransform="translate(-24502.471 0) scale(5.933 1)" gradientUnits="objectBoundingBox"><stop offset="0" stop-color="#d6d6d6"/><stop offset="0.375" stop-color="#d2d2d2"/><stop offset="0.684" stop-color="#c8c8c8"/><stop offset="0.968" stop-color="#b7b7b7"/><stop offset="1" stop-color="#b5b5b5"/></radialGradient><clipPath id="g"><path class="a" d="M173.823,281.1l12.489,5.907v56.513L173.823,355.2Z" transform="translate(-173.823 -281.104)"/></clipPath></defs><path class="b" d="M96.056,303.248v3.964H86.283l-21.538-3.964Z" transform="translate(-64.745 -233.192)"/><path class="c" d="M488.172,303.248v3.964h9.773l21.538-3.964Z" transform="translate(-335.665 -233.192)"/><g transform="translate(39.287 124.5)"><g class="d"><rect class="e" width="105.244" height="11.68"/><path class="e" d="M276.486,459.881v3.3H170.522v-5.665h-1.3a50.461,50.461,0,0,1,13-5.434c2.756-.8,5.78-1.545,9.03-2.216v.915h77.844v-1.478a70.785,70.785,0,0,1,7.576,2.094h-.194Z" transform="translate(-170.882 -451.144)"/><path class="f" d="M275.447,458.349v3.256H169.483v-4.081H167.6a17.158,17.158,0,0,1,1.97-1.478,49.216,49.216,0,0,1,12.687-5.3,137.712,137.712,0,0,1,18.944-3.906v2.367h65.811v-1.172a69.377,69.377,0,0,1,7.391,2.043q1.635.562,3.042,1.172h-2Z" transform="translate(-169.843 -449.565)"/><path class="g" d="M275.52,458.993V462.2H169.556v-2.53h-1.839a12.841,12.841,0,0,1,3.315-2.925,47.983,47.983,0,0,1,12.37-5.168,134.3,134.3,0,0,1,18.47-3.809V449.8h64.165v-.867a67.514,67.514,0,0,1,7.206,1.991q1.594.548,2.966,1.143h-.689Z" transform="translate(-169.916 -450.161)"/><path class="h" d="M276.241,459.638v3.16H170.277l-1.431.484c-.129-4.036,6.127-7.894,16.345-10.868a130.908,130.908,0,0,1,18-3.711v1.7h62.52v-.561a46.741,46.741,0,0,1,12.35,4.255h-1.817Z" transform="translate(-170.637 -450.758)"/><path class="i" d="M278.9,460.283v3.112h-105.9v.436c-.126-3.93,5.966-7.686,15.915-10.582a127.362,127.362,0,0,1,17.523-3.613v1.36h60.875v-.255a45.535,45.535,0,0,1,12.025,4.143H278.9Z" transform="translate(-173.299 -451.355)"/><path class="j" d="M281.564,458.541v2.825h2.47a11.869,11.869,0,0,1-3.06,2.7V461.6H177.166v.388c-.122-3.823,5.8-7.478,15.485-10.3a123.98,123.98,0,0,1,17.05-3.516V449.2h41.99v-2.367a123.953,123.953,0,0,1,17.239,2.419,44.308,44.308,0,0,1,11.7,4.031,11.864,11.864,0,0,1,3.226,2.5h-2.292Z" transform="translate(-175.96 -449.565)"/><path class="k" d="M286.2,458.532c.06,1.858-1.351,3.676-3.953,5.372v-2.356H181.326v.34c-.238-7.434,23.047-14.213,52.008-15.139v2.4H253.78v-1.995a120.6,120.6,0,0,1,16.761,2.352C280.108,451.637,286.085,454.814,286.2,458.532Z" transform="translate(-178.622 -449.508)"/><path class="l" d="M287.368,459.08c.058,1.805-1.312,3.571-3.84,5.218v-2.25H185.486v.292c-.231-7.222,22.389-13.807,50.523-14.707,14.067-.45,26.849.607,36.143,2.678S287.253,455.469,287.368,459.08Z" transform="translate(-181.284 -450.008)"/><path class="m" d="M288.531,459.817c.056,1.753-1.274,3.466-3.727,5.065v-2.145H189.645v.244c-.224-7.01,21.73-13.4,49.037-14.274S288.307,452.807,288.531,459.817Z" transform="translate(-183.945 -450.697)"/><path class="n" d="M289.7,460.553c.054,1.7-1.235,3.361-3.614,4.911v-2.039H193.806v.2c-.218-6.8,21.072-12.994,47.551-13.842S289.478,453.756,289.7,460.553Z" transform="translate(-186.608 -451.386)"/><path class="o" d="M290.858,461.29c.052,1.646-1.2,3.256-3.5,4.758v-1.934H197.965v.148c-.211-6.585,20.413-12.588,46.065-13.409S290.648,454.705,290.858,461.29Z" transform="translate(-189.269 -452.074)"/><path class="p" d="M292.022,462.027c.051,1.593-1.158,3.151-3.389,4.6V464.8H202.125v.1c-.2-6.373,19.755-12.182,44.579-12.977S291.817,455.654,292.022,462.027Z" transform="translate(-191.931 -452.763)"/><path class="q" d="M293.185,462.763c.049,1.54-1.119,3.046-3.275,4.451v-1.723H206.285v.052c-.2-6.16,19.1-11.776,43.093-12.544S292.988,456.6,293.185,462.763Z" transform="translate(-194.592 -453.452)"/><path class="r" d="M294.348,463.5c.048,1.487-1.081,2.941-3.163,4.3V466.18h-80.74v0c-.191-5.948,18.438-11.37,41.607-12.112S294.158,457.552,294.348,463.5Z" transform="translate(-197.254 -454.14)"/><path class="s" d="M295.512,464.236c.046,1.434-1.042,2.836-3.05,4.144v-1.512H215.494v2.023a3.351,3.351,0,0,1-.889-2.066c-.184-5.735,17.779-10.964,40.121-11.679S295.328,458.5,295.512,464.236Z" transform="translate(-199.916 -454.829)"/><path class="t" d="M296.676,464.972c.044,1.381-1,2.731-2.936,3.991v-1.406H219.621v1.9a3.227,3.227,0,0,1-.856-1.99c-.177-5.523,17.121-10.558,38.635-11.247S296.5,459.45,296.676,464.972Z" transform="translate(-202.578 -455.517)"/><path class="u" d="M297.839,465.71c.042,1.328-.965,2.626-2.824,3.837v-1.3H223.749v1.774a3.106,3.106,0,0,1-.823-1.914c-.17-5.31,16.462-10.151,37.149-10.813S297.669,460.4,297.839,465.71Z" transform="translate(-205.239 -456.206)"/><path class="v" d="M299,466.446c.041,1.274-.927,2.521-2.711,3.683v-1.2H227.875v1.649a2.98,2.98,0,0,1-.79-1.837c-.163-5.1,15.8-9.745,35.663-10.381S298.839,461.348,299,466.446Z" transform="translate(-207.901 -456.895)"/><path class="w" d="M300.166,467.182c.039,1.222-.888,2.416-2.6,3.53v-1.089H232v1.525a2.853,2.853,0,0,1-.757-1.761c-.156-4.885,15.145-9.34,34.177-9.949S300.009,462.3,300.166,467.182Z" transform="translate(-210.562 -457.583)"/><path class="x" d="M301.329,467.919c.037,1.168-.849,2.311-2.485,3.377v-.984H236.129v1.4a2.731,2.731,0,0,1-.724-1.684c-.149-4.673,14.487-8.934,32.691-9.516S301.179,463.246,301.329,467.919Z" transform="translate(-213.224 -458.272)"/><path class="y" d="M302.492,468.656c.036,1.115-.811,2.206-2.372,3.223V471H240.256v1.276a2.607,2.607,0,0,1-.691-1.607c-.143-4.461,13.828-8.528,31.205-9.084S302.35,464.195,302.492,468.656Z" transform="translate(-215.886 -458.961)"/><path class="z" d="M303.656,469.392c.034,1.062-.772,2.1-2.259,3.07v-.773H244.384v1.151a2.481,2.481,0,0,1-.658-1.531c-.136-4.249,13.17-8.122,29.719-8.651S303.52,465.144,303.656,469.392Z" transform="translate(-218.548 -459.649)"/><path class="aa" d="M304.819,470.129c.032,1.009-.734,2-2.146,2.916v-.667h-52.46v2.346c-1.469-.828-2.3-1.764-2.328-2.773-.129-4.036,12.511-7.716,28.233-8.218S304.69,466.093,304.819,470.129Z" transform="translate(-221.209 -460.338)"/><path class="ab" d="M305.982,470.865c.031.956-.695,1.891-2.033,2.763v-.561h-49.7v2.151c-1.391-.784-2.175-1.671-2.206-2.627-.122-3.823,11.853-7.309,26.747-7.786S305.86,467.041,305.982,470.865Z" transform="translate(-223.871 -461.026)"/><path class="ac" d="M307.146,471.6c.029.9-.656,1.786-1.92,2.609v-.456H258.288v1.958c-1.314-.74-2.054-1.578-2.083-2.48-.115-3.611,11.195-6.9,25.261-7.353S307.03,467.991,307.146,471.6Z" transform="translate(-226.532 -461.715)"/><path class="ad" d="M308.309,472.338c.054,1.7-2.58,3.324-6.882,4.576v-2.471h-39.1v1.764c-1.237-.7-1.933-1.485-1.961-2.335-.109-3.4,10.536-6.5,23.775-6.921S308.2,468.94,308.309,472.338Z" transform="translate(-229.194 -462.403)"/><path class="ad" d="M309.473,473.075c.051,1.593-2.418,3.115-6.452,4.29v-2.233H266.363v1.57c-1.159-.654-1.813-1.393-1.838-2.19-.1-3.186,9.877-6.091,22.29-6.488S309.371,469.889,309.473,473.075Z" transform="translate(-231.856 -463.092)"/><path class="ae" d="M310.637,473.811c.048,1.487-2.257,2.908-6.022,4V475.82H270.4V477.2c-1.082-.61-1.692-1.3-1.715-2.043-.1-2.974,9.219-5.685,20.8-6.056S310.541,470.838,310.637,473.811Z" transform="translate(-234.518 -463.781)"/><path class="ae" d="M311.8,474.548c.044,1.381-2.1,2.7-5.592,3.718v-1.757h-31.77v1.182c-1-.566-1.571-1.207-1.593-1.9-.088-2.761,8.56-5.279,19.317-5.623S311.711,471.787,311.8,474.548Z" transform="translate(-237.179 -464.469)"/><path class="ae" d="M312.963,475.285c.041,1.274-1.935,2.493-5.162,3.432V477.2H282.375v2.332c-3.28-.731-5.33-1.821-5.371-3.095-.082-2.549,7.9-4.873,17.831-5.19S312.882,472.736,312.963,475.285Z" transform="translate(-239.841 -465.158)"/><path class="ae" d="M314.126,476.021c.037,1.168-1.774,2.285-4.731,3.146v-1.28H286.087v2.026c-3.007-.67-4.886-1.669-4.923-2.837-.075-2.336,7.244-4.467,16.346-4.758S314.052,473.685,314.126,476.021Z" transform="translate(-242.502 -465.847)"/><path class="af" d="M315.29,476.757c.068,2.124-6.585,4.061-14.86,4.326v-2.508H289.8V480.3c-2.734-.609-4.441-1.517-4.475-2.579-.068-2.124,6.585-4.061,14.859-4.326S315.222,474.633,315.29,476.757Z" transform="translate(-245.165 -466.535)"/><path class="af" d="M316.453,477.495c.061,1.912-5.926,3.655-13.374,3.893s-13.534-1.118-13.6-3.03,5.927-3.655,13.374-3.893S316.392,475.583,316.453,477.495Z" transform="translate(-247.826 -467.224)"/><path class="af" d="M317.617,478.231c.054,1.7-5.268,3.248-11.888,3.46S293.7,480.7,293.644,479s5.268-3.248,11.888-3.46S317.562,476.531,317.617,478.231Z" transform="translate(-250.488 -467.912)"/><path class="af" d="M318.78,478.967c.048,1.487-4.609,2.843-10.4,3.028s-10.527-.87-10.574-2.357,4.609-2.843,10.4-3.028S318.733,477.48,318.78,478.967Z" transform="translate(-253.149 -468.601)"/><path class="af" d="M319.944,479.7c.041,1.275-3.951,2.437-8.916,2.6s-9.023-.746-9.063-2.02,3.951-2.437,8.916-2.6S319.9,478.429,319.944,479.7Z" transform="translate(-255.811 -469.29)"/><path class="af" d="M321.107,480.441c.034,1.062-3.293,2.03-7.43,2.163s-7.519-.621-7.553-1.683,3.292-2.03,7.43-2.163S321.073,479.378,321.107,480.441Z" transform="translate(-258.473 -469.978)"/><path class="af" d="M322.271,481.177c.027.85-2.634,1.624-5.944,1.73s-6.015-.5-6.042-1.347,2.634-1.624,5.944-1.73S322.243,480.327,322.271,481.177Z" transform="translate(-261.135 -470.667)"/><path class="af" d="M323.434,481.914c.02.637-1.976,1.218-4.458,1.3s-4.512-.372-4.532-1.01,1.976-1.218,4.458-1.3S323.414,481.276,323.434,481.914Z" transform="translate(-263.797 -471.356)"/><path class="af" d="M324.6,482.649c.014.425-1.317.812-2.972.866s-3.008-.249-3.021-.673,1.317-.812,2.972-.865S324.583,482.225,324.6,482.649Z" transform="translate(-266.458 -472.044)"/><path class="af" d="M325.761,483.387c.007.212-.658.406-1.486.432s-1.5-.124-1.51-.336.658-.406,1.486-.432S325.754,483.174,325.761,483.387Z" transform="translate(-269.12 -472.733)"/></g></g><g class="ag" transform="translate(91.909 10.029)"><g class="ah"><rect class="ai" width="68.288" height="54.585"/><path class="ai" d="M317.2,133.694h29.068v-1.065c3.1,2.093,6.233,4.358,9.361,6.783,12.51,9.7,22.568,20.118,28.717,29.119a56.9,56.9,0,0,1,3.855,6.452h-1.992V189H368.321v.193c-10.248-3.713-22.842-10.86-35.352-20.561a166.367,166.367,0,0,1-16.744-14.822h.972Z" transform="translate(-317.558 -134.054)"/><path class="aj" d="M318.137,134.411h29.031v-.662c3.042,2.053,6.115,4.276,9.184,6.655,12.274,9.518,22.143,19.739,28.175,28.57a55.751,55.751,0,0,1,3.783,6.33h-1.165v14.411h-5.278v2.361a41.044,41.044,0,0,1-13.059-2.83c-10.055-3.643-22.412-10.656-34.686-20.174a163.164,163.164,0,0,1-16.429-14.543h.443Z" transform="translate(-318.497 -134.771)"/><path class="ak" d="M316.036,135.127H345.03v-.258c2.983,2.013,6,4.193,9.008,6.527,12.038,9.335,21.717,19.36,27.633,28.021a40.262,40.262,0,0,1,5.878,11.714h-2.505v8.129h1.687c-1.505,1.941-4.159,2.844-7.669,2.815a40.25,40.25,0,0,1-12.808-2.776c-9.862-3.573-21.981-10.451-34.019-19.786a160.021,160.021,0,0,1-16.113-14.263q-.875-.891-1.713-1.779h1.627Z" transform="translate(-316.396 -135.488)"/><path class="al" d="M317.035,133.269H343.8v-1.3q1.09.709,2.187,1.45c2.925,1.974,5.88,4.111,8.831,6.4,11.8,9.152,21.292,18.98,27.092,27.472a39.467,39.467,0,0,1,5.763,11.484h-1.634v7.97h.833c-2.951,3.806-10.407,3.542-20.076.039s-21.551-10.246-33.353-19.4a156.978,156.978,0,0,1-15.8-13.984q-.857-.874-1.68-1.744h1.064Z" transform="translate(-317.395 -133.629)"/><path class="am" d="M315.238,131.622h24.647v-2.231q2.121,1.328,4.273,2.78c2.866,1.934,5.763,4.029,8.654,6.271,11.567,8.969,20.866,18.6,26.551,26.923a38.7,38.7,0,0,1,5.647,11.254c.867,3.26.661,5.945-.785,7.81-2.892,3.73-10.2,3.471-19.675.038s-21.119-10.042-32.686-19.011a153.823,153.823,0,0,1-15.481-13.7q-1.68-1.714-3.22-3.408h2.076Z" transform="translate(-315.598 -131.983)"/><path class="an" d="M316.295,132.439h24.7v-1.771q2.077,1.3,4.185,2.723c2.808,1.895,5.646,3.947,8.478,6.143,11.331,8.786,20.44,18.221,26.009,26.374s7.6,15.022,4.763,18.676-9.991,3.4-19.274.037-20.689-9.837-32.02-18.623a150.617,150.617,0,0,1-15.165-13.425q-1.646-1.679-3.155-3.338h1.481Z" transform="translate(-316.655 -132.8)"/><path class="ao" d="M317.352,133.256H342.1v-1.311q2.034,1.274,4.1,2.667c2.749,1.856,5.528,3.865,8.3,6.016,11.1,8.6,20.016,17.842,25.468,25.825s7.439,14.709,4.664,18.287-9.783,3.33-18.873.037S345.5,175.144,334.4,166.541a147.537,147.537,0,0,1-14.85-13.145q-1.612-1.643-3.089-3.269h.886Z" transform="translate(-317.712 -133.617)"/><path class="ap" d="M318.409,134.074h24.8v-.851q1.991,1.247,4.011,2.61c2.691,1.816,5.41,3.783,8.125,5.887,10.859,8.42,19.589,17.463,24.926,25.276s7.28,14.4,4.564,17.9c-5.431,7-27.439-.971-49.158-17.812a144.292,144.292,0,0,1-14.534-12.866q-1.578-1.609-3.024-3.2h.291Z" transform="translate(-318.769 -134.434)"/><path class="aq" d="M314.687,134.891h24.848V134.5q1.948,1.22,3.924,2.553c2.632,1.777,5.292,3.7,7.948,5.76,21.246,16.475,34.163,35.385,28.85,42.237s-26.843-.95-48.09-17.425a141.311,141.311,0,0,1-14.219-12.587c-2.058-2.1-3.947-4.178-5.647-6.211h2.386Z" transform="translate(-315.047 -135.251)"/><path class="ar" d="M315.85,131.673h21.125v-2.2a138.11,138.11,0,0,1,15.381,10.4c20.775,16.109,33.4,34.6,28.21,41.3s-26.247-.929-47.022-17.038a138.106,138.106,0,0,1-13.9-12.307c-2.012-2.052-3.859-4.085-5.523-6.073h1.731Z" transform="translate(-316.21 -132.033)"/><path class="as" d="M317.013,132.581h21.261V130.89a134.927,134.927,0,0,1,15.031,10.164c20.3,15.743,32.646,33.813,27.569,40.361s-25.651-.908-45.954-16.651a134.99,134.99,0,0,1-13.587-12.027c-1.966-2.005-3.771-3.993-5.4-5.935h1.076Z" transform="translate(-317.373 -132.942)"/><path class="at" d="M318.176,133.491h21.4v-1.18a131.764,131.764,0,0,1,14.683,9.928c19.831,15.377,31.887,33.028,26.928,39.423s-25.055-.886-44.886-16.264a131.775,131.775,0,0,1-13.271-11.748c-1.921-1.959-3.684-3.9-5.272-5.8h.422Z" transform="translate(-318.536 -133.851)"/><path class="au" d="M315.441,134.4h21.533v-.668a128.728,128.728,0,0,1,14.333,9.692c19.359,15.012,31.129,32.242,26.288,38.485s-24.459-.866-43.818-15.877a128.633,128.633,0,0,1-12.956-11.469c-1.875-1.912-3.6-3.807-5.146-5.659q-1.162-1.39-2.194-2.743h1.961Z" transform="translate(-315.801 -134.759)"/><path class="av" d="M316.7,135.308h21.668v-.157a125.511,125.511,0,0,1,13.984,9.456c18.888,14.646,30.37,31.456,25.647,37.547s-23.863-.844-42.751-15.49a125.554,125.554,0,0,1-12.64-11.189c-1.829-1.865-3.509-3.714-5.021-5.521q-1.134-1.355-2.141-2.676H316.7Z" transform="translate(-317.06 -135.668)"/><path class="aw" d="M314.707,133.006h18.538v-1.452q1.61.851,3.266,1.807a122.363,122.363,0,0,1,13.634,9.219c18.416,14.28,29.612,30.671,25.007,36.609s-23.267-.823-41.683-15.1c-9.208-7.14-16.611-14.808-21.136-21.433h2.374Z" transform="translate(-315.067 -133.367)"/><path class="ax" d="M316.049,131.24H331.72v-2.447c2.021.963,4.119,2.071,6.268,3.314a119.36,119.36,0,0,1,13.285,8.983c17.944,13.914,28.853,29.885,24.366,35.671s-22.671-.8-40.615-14.716c-8.972-6.957-16.185-14.428-20.595-20.883h1.619Z" transform="translate(-316.409 -131.6)"/><path class="ay" d="M317.39,132.3h15.972v-1.848c1.967.939,4.011,2.017,6.1,3.226a116.12,116.12,0,0,1,12.936,8.747c17.473,13.548,28.095,29.1,23.726,34.734s-22.075-.781-39.547-14.329c-8.736-6.774-15.76-14.049-20.053-20.335h.864Z" transform="translate(-317.75 -132.663)"/><path class="az" d="M318.732,133.367H335v-1.249c1.914.913,3.9,1.963,5.939,3.139a113.024,113.024,0,0,1,12.587,8.511c17,13.182,27.336,28.313,23.085,33.8s-21.479-.76-38.479-13.943c-8.5-6.591-15.334-13.67-19.512-19.786h.109Z" transform="translate(-319.092 -133.727)"/><path class="az" d="M315.548,134.43h16.573v-.65c1.861.888,3.794,1.908,5.774,3.052a109.855,109.855,0,0,1,12.237,8.275c16.529,12.817,26.577,27.528,22.444,32.858s-20.883-.739-37.412-13.556c-8.265-6.408-14.909-13.29-18.97-19.236a37.531,37.531,0,0,1-2.547-4.262h1.9Z" transform="translate(-315.908 -134.791)"/><path class="ba" d="M314.451,131.6h11.683v-2.244c6.577,2.383,14.659,6.97,22.688,13.2,16.057,12.451,25.819,26.742,21.8,31.92s-20.287-.718-36.344-13.169c-8.029-6.226-14.483-12.911-18.429-18.688a26.844,26.844,0,0,1-3.92-7.812h2.519Z" transform="translate(-314.811 -131.961)"/><path class="bb" d="M316,132.779h12.136V131.2c6.384,2.313,14.228,6.765,22.021,12.807,15.585,12.085,25.06,25.957,21.163,30.982s-19.691-.7-35.276-12.782c-7.793-6.043-14.058-12.532-17.888-18.138a26.065,26.065,0,0,1-3.8-7.582H316Z" transform="translate(-316.357 -133.139)"/><path class="bc" d="M316.945,133.957h12.588v-.917c6.191,2.243,13.8,6.56,21.355,12.42C366,157.179,375.19,170.63,371.41,175.5s-19.095-.676-34.208-12.395c-7.557-5.86-13.632-12.152-17.346-17.589s-5.066-10.018-3.177-12.455Z" transform="translate(-317.305 -134.317)"/><path class="bc" d="M319.1,135.135h12.453v-.254c6,2.173,13.367,6.355,20.688,12.032,14.642,11.353,23.543,24.385,19.882,29.107s-18.5-.654-33.14-12.008c-7.321-5.677-13.206-11.773-16.8-17.04s-4.908-9.706-3.077-12.066Z" transform="translate(-318.87 -135.495)"/><path class="bd" d="M321.517,133.842c1.772-2.285,6.247-2.126,12.051-.023s12.936,6.15,20.021,11.644c14.17,10.987,22.785,23.6,19.241,28.169s-17.9-.634-32.073-11.621S317.974,138.412,321.517,133.842Z" transform="translate(-320.434 -133.77)"/><path class="bd" d="M323.936,135.78c1.713-2.209,6.039-2.055,11.65-.022s12.506,5.946,19.355,11.256c13.7,10.622,22.026,22.814,18.6,27.231s-17.307-.612-31-11.234S320.511,140.2,323.936,135.78Z" transform="translate(-321.999 -135.045)"/><ellipse class="bd" cx="9.773" cy="30.305" rx="9.773" ry="30.305" transform="matrix(0.613, -0.79, 0.79, 0.613, -3.197, 9.12)"/><ellipse class="bd" cx="9.424" cy="29.224" rx="9.424" ry="29.224" transform="translate(-2.129 9.507) rotate(-52.209)"/><ellipse class="be" cx="9.075" cy="28.143" rx="9.075" ry="28.143" transform="matrix(0.613, -0.79, 0.79, 0.613, -1.061, 9.894)"/><path class="be" d="M333.611,143.528c2.954-3.809,14.923.528,26.734,9.686s18.992,19.671,16.038,23.48-14.923-.528-26.734-9.686S330.658,147.337,333.611,143.528Z" transform="translate(-328.257 -140.144)"/><ellipse class="be" cx="8.378" cy="25.981" rx="8.378" ry="25.981" transform="translate(1.074 10.668) rotate(-52.209)"/><path class="be" d="M338.449,147.4c2.718-3.5,13.73.486,24.6,8.912s17.475,18.1,14.757,21.6-13.73-.486-24.6-8.912S335.732,150.907,338.449,147.4Z" transform="translate(-331.386 -142.693)"/><ellipse class="be" cx="7.681" cy="23.819" rx="7.681" ry="23.819" transform="matrix(0.613, -0.79, 0.79, 0.613, 3.21, 11.441)"/><path class="be" d="M343.286,151.277c2.482-3.2,12.538.443,22.462,8.139s15.957,16.528,13.476,19.728S366.686,178.7,356.762,171,340.8,154.477,343.286,151.277Z" transform="translate(-334.515 -145.243)"/><path class="be" d="M345.705,153.214c2.363-3.048,11.942.423,21.394,7.752s15.2,15.742,12.835,18.79-11.942-.422-21.394-7.752S343.341,156.262,345.705,153.214Z" transform="translate(-336.08 -146.518)"/><path class="be" d="M348.124,155.151c2.246-2.9,11.346.4,20.327,7.365s14.44,14.957,12.194,17.853-11.346-.4-20.326-7.365S345.878,158.047,348.124,155.151Z" transform="translate(-337.644 -147.792)"/><path class="be" d="M350.543,157.088c2.128-2.744,10.75.38,19.259,6.978s13.682,14.171,11.554,16.915S370.605,180.6,362.1,174,348.415,159.832,350.543,157.088Z" transform="translate(-339.209 -149.067)"/><path class="be" d="M352.962,159.025c2.01-2.592,10.154.359,18.191,6.591S384.076,179,382.066,181.593s-10.154-.359-18.191-6.591S350.952,161.617,352.962,159.025Z" transform="translate(-340.774 -150.342)"/><path class="be" d="M355.38,160.962c1.892-2.44,9.558.338,17.123,6.2s12.164,12.6,10.272,15.039-9.558-.338-17.123-6.2S353.488,163.4,355.38,160.962Z" transform="translate(-342.338 -151.616)"/><path class="be" d="M357.8,162.9c1.774-2.287,8.962.317,16.055,5.817s11.406,11.814,9.632,14.1-8.962-.317-16.055-5.818S356.025,165.186,357.8,162.9Z" transform="translate(-343.903 -152.891)"/><path class="be" d="M360.218,164.836c1.656-2.135,8.366.3,14.987,5.431s10.647,11.028,8.991,13.163-8.366-.3-14.987-5.431S358.562,166.971,360.218,164.836Z" transform="translate(-345.467 -154.166)"/><path class="be" d="M362.636,166.773c1.538-1.983,7.77.275,13.92,5.044s9.889,10.242,8.351,12.225-7.77-.275-13.92-5.044S361.1,168.756,362.636,166.773Z" transform="translate(-347.032 -155.44)"/><path class="be" d="M365.055,168.71c1.42-1.831,7.174.254,12.852,4.657s9.13,9.457,7.71,11.288-7.174-.254-12.852-4.657S363.635,170.541,365.055,168.71Z" transform="translate(-348.596 -156.715)"/><path class="be" d="M367.474,170.647c1.3-1.679,6.578.233,11.784,4.27s8.371,8.671,7.069,10.35-6.578-.233-11.784-4.27S366.172,172.326,367.474,170.647Z" transform="translate(-350.161 -157.99)"/><path class="be" d="M369.893,172.584c1.184-1.527,5.982.212,10.716,3.883s7.613,7.885,6.429,9.412-5.982-.211-10.717-3.883S368.71,174.111,369.893,172.584Z" transform="translate(-351.726 -159.264)"/><path class="be" d="M372.312,174.521c1.066-1.374,5.386.191,9.649,3.5s6.854,7.1,5.788,8.474-5.386-.191-9.649-3.5S371.246,175.9,372.312,174.521Z" transform="translate(-353.29 -160.539)"/></g></g><g class="bf" transform="translate(23.621 10.029)"><g class="bg"><rect class="ai" width="68.288" height="54.585"/><path class="ai" d="M196.411,132.639v21.3h1.669q-2,1.879-4.14,3.76c-2.851,2.5-5.878,5-9.059,7.451-12.722,9.807-25.489,17.066-35.844,20.876s-18.3,4.169-21.378.174c-1.539-2-1.717-4.893-.719-8.42a42.933,42.933,0,0,1,6.33-12.208c6.32-9.044,16.59-19.542,29.313-29.349q2.385-1.839,4.768-3.557,1.19-.858,2.376-1.685v1.659Z" transform="translate(-127.763 -132.999)"/><path class="bh" d="M197.76,133.2v21.246h1.28q-1.969,1.849-4.074,3.7c-2.805,2.464-5.784,4.919-8.914,7.332-12.519,9.65-25.08,16.794-35.27,20.542s-18.006,4.1-21.035.172-.7-11.4,5.521-20.3,16.324-19.229,28.843-28.879q2.348-1.809,4.692-3.5,1.171-.844,2.338-1.658V133.2Z" transform="translate(-129.112 -133.56)"/><path class="aj" d="M199.108,133.76v21.195H200q-1.937,1.819-4.008,3.639c-2.76,2.425-5.69,4.84-8.769,7.213-12.315,9.493-24.673,16.52-34.7,20.207s-17.713,4.035-20.693.169-.686-11.214,5.431-19.968,16.059-18.916,28.374-28.409q2.309-1.78,4.615-3.442,1.152-.831,2.3-1.632v1.028Z" transform="translate(-130.46 -134.12)"/><path class="bi" d="M200.457,131.577V152.72h.5q-1.9,1.789-3.941,3.58c-2.714,2.384-5.6,4.759-8.624,7.093-12.111,9.336-24.264,16.247-34.122,19.874s-17.42,3.968-20.351.166-.675-11.028,5.341-19.638,15.793-18.6,27.905-27.939c3.028-2.334,6.058-4.516,9.055-6.534v2.256Z" transform="translate(-131.809 -131.938)"/><path class="bj" d="M201.8,132.185v21.091h.111q-1.873,1.759-3.875,3.519c-2.669,2.344-5.5,4.679-8.479,6.974-11.908,9.179-23.856,15.974-33.548,19.539s-17.127,3.9-20.009.164-.664-10.843,5.251-19.308,15.528-18.29,27.436-27.469c2.977-2.295,5.957-4.44,8.9-6.424v1.915Z" transform="translate(-133.157 -132.545)"/><path class="al" d="M203.154,132.791V152.1h1.529q-.888.862-1.808,1.727-1.841,1.729-3.809,3.459c-2.622,2.3-5.408,4.6-8.334,6.855-11.7,9.022-23.448,15.7-32.974,19.205s-16.834,3.835-19.666.161c-5.664-7.349,8.72-27.933,32.128-45.977,2.926-2.255,5.855-4.365,8.75-6.314v1.574Z" transform="translate(-134.506 -133.151)"/><path class="bk" d="M204.5,133.4v19.289h1.108q-.872.848-1.777,1.7-1.809,1.7-3.743,3.4c-2.577,2.264-5.313,4.519-8.189,6.736-23,17.73-46.159,26.249-51.725,19.029s8.568-27.447,31.569-45.177c2.875-2.216,5.753-4.289,8.6-6.2V133.4Z" transform="translate(-135.854 -133.758)"/><path class="bl" d="M205.85,134v17.605h2.367a153.833,153.833,0,0,1-15.146,13.284c-22.594,17.416-45.341,25.784-50.809,18.692s8.417-26.961,31.01-44.377c2.824-2.177,5.651-4.213,8.446-6.094V134Z" transform="translate(-137.202 -134.364)"/><path class="an" d="M207.2,134.611v17.613h1.915a151.043,151.043,0,0,1-14.873,13.044c-22.186,17.1-44.524,25.319-49.893,18.355s8.265-26.475,30.451-43.577c2.773-2.138,5.549-4.137,8.294-5.984v.549Z" transform="translate(-138.55 -134.971)"/><path class="bm" d="M208.547,135.217v17.621h1.464a148.356,148.356,0,0,1-14.6,12.8C173.632,182.43,151.7,190.5,146.435,183.66s8.113-25.989,29.892-42.776c2.722-2.1,5.447-4.061,8.141-5.875v.208Z" transform="translate(-139.899 -135.577)"/><path class="bn" d="M209.9,131.277v17.629h1.012a145.479,145.479,0,0,1-14.327,12.565c-21.371,16.474-42.889,24.39-48.06,17.681s7.961-25.5,29.332-41.977c2.672-2.059,5.345-3.985,7.989-5.765q1.982-1.335,3.939-2.559v2.426Z" transform="translate(-141.247 -131.637)"/><path class="bo" d="M211.244,131.971v17.637h.561a142.737,142.737,0,0,1-14.054,12.325c-20.964,16.16-42.071,23.925-47.144,17.344s7.809-25.016,28.773-41.177c2.621-2.02,5.243-3.909,7.837-5.655q1.945-1.31,3.864-2.51v2.035Z" transform="translate(-142.596 -132.331)"/><path class="aq" d="M212.592,132.663v17.644h.109a139.956,139.956,0,0,1-13.781,12.087c-20.556,15.846-41.254,23.46-46.228,17.007s7.657-24.53,28.214-40.376c2.569-1.981,5.141-3.833,7.684-5.545q1.907-1.284,3.789-2.462v1.645Z" transform="translate(-143.944 -133.024)"/><path class="bp" d="M213.941,133.357v14.712h2.475q-1.347,1.46-2.817,2.941a137.3,137.3,0,0,1-13.508,11.847c-20.149,15.532-40.437,23-45.312,16.669s7.506-24.044,27.655-39.576c2.519-1.941,5.04-3.757,7.532-5.435q1.869-1.259,3.714-2.413v1.255Z" transform="translate(-145.293 -133.717)"/><path class="bq" d="M215.289,134.05v14.779h1.967q-1.32,1.431-2.76,2.881a134.464,134.464,0,0,1-13.234,11.608c-19.742,15.218-39.619,22.53-44.4,16.333s7.354-23.558,27.1-38.776c2.468-1.9,4.938-3.681,7.38-5.325q1.831-1.233,3.639-2.364v.865Z" transform="translate(-146.641 -134.41)"/><path class="br" d="M216.637,134.743V149.59H218.1q-1.293,1.4-2.7,2.822a131.726,131.726,0,0,1-12.961,11.368c-19.335,14.9-38.8,22.065-43.48,16s7.2-23.072,26.537-37.976c2.417-1.863,4.836-3.6,7.228-5.215q1.794-1.208,3.564-2.316v.475Z" transform="translate(-147.989 -135.103)"/><path class="bs" d="M217.986,131.767v14.914h.949q-1.265,1.372-2.647,2.763A128.9,128.9,0,0,1,203.6,160.572c-18.927,14.59-37.984,21.6-42.564,15.659s7.051-22.586,25.978-37.176a128.862,128.862,0,0,1,13.991-9.438v2.15Z" transform="translate(-149.338 -132.127)"/><path class="bt" d="M219.334,132.539v14.982h.441q-1.238,1.341-2.59,2.7a126.1,126.1,0,0,1-12.415,10.888c-18.52,14.276-37.167,21.136-41.648,15.322s6.9-22.1,25.419-36.376a126.23,126.23,0,0,1,13.691-9.234v1.715Z" transform="translate(-150.686 -132.899)"/><path class="bu" d="M220.683,133.311V145.76h2.239c-1.459,1.715-3.078,3.471-4.839,5.243a123.366,123.366,0,0,1-12.142,10.649c-18.113,13.962-36.349,20.671-40.732,14.985s6.747-21.614,24.86-35.576a123.363,123.363,0,0,1,13.389-9.031v1.281Z" transform="translate(-152.035 -133.671)"/><path class="aw" d="M222.031,134.084v12.575h1.678c-1.427,1.676-3.009,3.392-4.73,5.125a120.54,120.54,0,0,1-11.869,10.41c-17.7,13.648-35.531,20.206-39.816,14.648s6.6-21.128,24.3-34.775a120.577,120.577,0,0,1,13.088-8.828v.846Z" transform="translate(-153.383 -134.444)"/><path class="bv" d="M223.379,134.856v12.7H224.5c-1.394,1.638-2.939,3.314-4.621,5.007a117.843,117.843,0,0,1-11.6,10.171c-17.3,13.334-34.714,19.741-38.9,14.311s6.444-20.642,23.742-33.976a117.807,117.807,0,0,1,12.787-8.625v.411Z" transform="translate(-154.731 -135.216)"/><path class="bw" d="M224.728,132.686v12.826h.558c-1.361,1.6-2.871,3.237-4.513,4.89a115.009,115.009,0,0,1-11.323,9.931c-16.891,13.02-33.9,19.276-37.984,13.974s6.292-20.156,23.183-33.175a115.075,115.075,0,0,1,12.486-8.422q1.513-.876,2.985-1.656v1.633Z" transform="translate(-156.08 -133.046)"/><path class="ba" d="M226.076,133.528v10.642h1.879q-.885,1.138-1.882,2.31c-1.328,1.561-2.8,3.158-4.4,4.772a112.266,112.266,0,0,1-11.05,9.691c-16.483,12.706-33.079,18.811-37.068,13.636s6.14-19.669,22.623-32.375a112.265,112.265,0,0,1,12.185-8.219q1.477-.854,2.913-1.616v1.158Z" transform="translate(-157.428 -133.889)"/><path class="bc" d="M227.424,131.9v10.825H228.7q-.863,1.11-1.835,2.253c-1.3,1.522-2.732,3.081-4.3,4.654a109.478,109.478,0,0,1-10.776,9.452c-16.076,12.392-32.262,18.346-36.152,13.3s5.988-19.184,22.064-31.575a109.528,109.528,0,0,1,11.884-8.016c1.92-1.111,3.792-2.1,5.594-2.969V131.9Z" transform="translate(-158.776 -132.258)"/><path class="bd" d="M228.773,132.8v8.88h2.237c-3.892,5.569-10.216,12.033-18.05,18.072-15.669,12.078-31.444,17.881-35.236,12.963s5.837-18.7,21.505-30.775a106.694,106.694,0,0,1,11.583-7.812c1.871-1.083,3.7-2.05,5.452-2.894V132.8Z" transform="translate(-160.125 -133.164)"/><path class="bx" d="M230.121,133.709v9.118h1.589c-3.791,5.425-9.95,11.72-17.581,17.6-15.261,11.764-30.627,17.416-34.319,12.626s5.685-18.211,20.946-29.975a103.941,103.941,0,0,1,11.282-7.609c1.822-1.055,3.6-2,5.31-2.819v1.056Z" transform="translate(-161.473 -134.07)"/><path class="be" d="M231.47,134.615v9.357h.942c-3.69,5.28-9.685,11.408-17.112,17.133-14.854,11.45-29.809,16.952-33.4,12.289s5.533-17.725,20.387-29.175a101.123,101.123,0,0,1,10.98-7.406c1.774-1.027,3.5-1.944,5.169-2.743v.546Z" transform="translate(-162.822 -134.976)"/><path class="by" d="M232.818,132v9.6h.294c-3.588,5.135-9.419,11.094-16.642,16.663-14.447,11.136-28.992,16.487-32.488,11.952s5.382-17.239,19.828-28.375c7.223-5.568,14.471-9.69,20.35-11.853V132Z" transform="translate(-164.17 -132.361)"/><path class="bz" d="M234.166,133.006v6.26h1.84a32.278,32.278,0,0,1-2.194,3.574c-3.487,4.99-9.153,10.782-16.173,16.193-14.039,10.822-28.174,16.022-31.572,11.614s5.23-16.753,19.269-27.575c7.02-5.411,14.063-9.416,19.777-11.518v1.452Z" transform="translate(-165.518 -133.367)"/><path class="ca" d="M235.515,134.011v3.531H237.9a23.013,23.013,0,0,1-3.391,6.54,76.757,76.757,0,0,1-15.7,15.723c-13.632,10.508-27.357,15.557-30.655,11.278s5.078-16.267,18.71-26.775a76.76,76.76,0,0,1,19.2-11.184v.886Z" transform="translate(-166.867 -134.372)"/><path class="ca" d="M236.863,135.017v3.965h1.64a22.32,22.32,0,0,1-3.289,6.345,74.45,74.45,0,0,1-15.235,15.253c-13.224,10.194-26.539,15.092-29.739,10.941s4.926-15.781,18.151-25.975A74.445,74.445,0,0,1,227.02,134.7v.321Z" transform="translate(-168.215 -135.377)"/><path class="cb" d="M238.741,133.479c1.551,2.012.357,5.836-2.826,10.391a72.156,72.156,0,0,1-14.765,14.783c-12.817,9.88-25.722,14.627-28.823,10.6s4.774-15.294,17.592-25.174a72.148,72.148,0,0,1,18.055-10.516C233.189,131.648,237.19,131.467,238.741,133.479Z" transform="translate(-169.564 -133.682)"/><path class="cb" d="M239.352,135.139c1.5,1.948.346,5.65-2.736,10.061a69.875,69.875,0,0,1-14.3,14.313c-12.41,9.566-24.9,14.162-27.907,10.267s4.622-14.808,17.032-24.374a69.86,69.86,0,0,1,17.481-10.181C233.976,133.366,237.851,133.191,239.352,135.139Z" transform="translate(-170.912 -134.773)"/><path class="cc" d="M239.963,136.8c2.9,3.768-4.471,14.322-16.473,23.574S199.4,174.07,196.5,170.3s4.471-14.322,16.473-23.574S237.058,133.03,239.963,136.8Z" transform="translate(-172.261 -135.864)"/><path class="cc" d="M240.573,138.457c2.806,3.64-4.319,13.836-15.914,22.774s-23.269,13.233-26.075,9.593,4.32-13.836,15.914-22.774S237.767,134.817,240.573,138.457Z" transform="translate(-173.609 -136.955)"/><path class="cd" d="M241.184,140.116c2.707,3.512-4.168,13.351-15.355,21.974s-22.452,12.767-25.159,9.255,4.168-13.35,15.355-21.974S238.477,136.6,241.184,140.116Z" transform="translate(-174.957 -138.045)"/><path class="cd" d="M241.8,141.776c2.609,3.385-4.016,12.864-14.8,21.174s-21.634,12.3-24.243,8.919,4.016-12.864,14.8-21.174S239.186,138.392,241.8,141.776Z" transform="translate(-176.306 -139.136)"/><path class="cd" d="M242.406,143.436c2.51,3.256-3.864,12.378-14.237,20.374s-20.817,11.838-23.327,8.581,3.864-12.378,14.237-20.374S239.9,140.179,242.406,143.436Z" transform="translate(-177.654 -140.227)"/><path class="ce" d="M243.017,145.095c2.412,3.128-3.712,11.892-13.678,19.574s-20,11.373-22.411,8.245,3.712-11.892,13.678-19.574S240.605,141.966,243.017,145.095Z" transform="translate(-179.003 -141.318)"/><ellipse class="ce" cx="21.852" cy="6.86" rx="21.852" ry="6.86" transform="matrix(0.792, -0.611, 0.611, 0.792, 24.475, 25.593)"/><path class="ce" d="M244.238,148.414c2.215,2.873-3.409,10.919-12.56,17.973s-18.364,10.443-20.579,7.57,3.409-10.919,12.56-17.973S242.024,145.541,244.238,148.414Z" transform="translate(-181.699 -143.5)"/><path class="ce" d="M244.849,150.073c2.116,2.745-3.257,10.433-12,17.173s-17.547,9.979-19.663,7.234,3.257-10.433,12-17.173S242.733,147.328,244.849,150.073Z" transform="translate(-183.048 -144.591)"/><path class="ce" d="M245.46,151.733c2.017,2.617-3.105,9.947-11.442,16.373s-16.729,9.514-18.747,6.9,3.105-9.947,11.442-16.373S243.443,149.116,245.46,151.733Z" transform="translate(-184.396 -145.682)"/><path class="cf" d="M246.071,153.392c1.919,2.489-2.953,9.461-10.883,15.574s-15.912,9.049-17.83,6.559,2.953-9.461,10.882-15.573S244.152,150.9,246.071,153.392Z" transform="translate(-185.745 -146.772)"/><ellipse class="cf" cx="17.195" cy="5.398" rx="17.195" ry="5.398" transform="translate(29.055 23.909) rotate(-37.626)"/><path class="cf" d="M247.292,156.71c1.722,2.233-2.65,8.489-9.764,13.973s-14.276,8.119-16,5.886,2.65-8.489,9.764-13.973S245.571,154.477,247.292,156.71Z" transform="translate(-188.441 -148.954)"/><path class="cf" d="M247.9,158.37c1.623,2.105-2.5,8-9.2,13.173s-13.46,7.654-15.082,5.548,2.5-8,9.2-13.173S246.28,156.264,247.9,158.37Z" transform="translate(-189.79 -150.045)"/><ellipse class="cf" cx="14.401" cy="4.521" rx="14.401" ry="4.521" transform="translate(31.804 22.898) rotate(-37.626)"/><ellipse class="cf" cx="13.47" cy="4.229" rx="13.47" ry="4.229" transform="matrix(0.792, -0.611, 0.611, 0.792, 32.72, 22.56)"/><ellipse class="cf" cx="12.539" cy="3.936" rx="12.539" ry="3.936" transform="matrix(0.792, -0.611, 0.611, 0.792, 33.636, 22.223)"/><ellipse class="cf" cx="11.608" cy="3.644" rx="11.608" ry="3.644" transform="translate(34.552 21.886) rotate(-37.626)"/><path class="cf" d="M250.957,166.666c1.13,1.466-1.74,5.573-6.41,9.173s-9.372,5.329-10.5,3.864,1.74-5.573,6.41-9.173S249.827,165.2,250.957,166.666Z" transform="translate(-196.532 -155.499)"/><path class="cf" d="M251.568,168.326c1.032,1.338-1.588,5.087-5.851,8.373s-8.554,4.864-9.586,3.526,1.588-5.087,5.85-8.373S250.537,166.988,251.568,168.326Z" transform="translate(-197.88 -156.59)"/></g></g><path class="cg" d="M443.84,281.1l-12.49,5.907v56.513l12.49,11.68Z" transform="translate(-299.309 -219.024)"/><g class="ch" transform="translate(39.287 62.08)"><g class="ci"><rect class="cj" width="12.489" height="74.1"/><path class="cj" d="M186.033,311.709v20.149H188.5a98.14,98.14,0,0,1-3.65,16.436,51.655,51.655,0,0,1-2.486,6.307v-1.752h-9.545v-74.82h13.059v-1.168q.26.921.506,1.883h-.356Z" transform="translate(-173.183 -278.389)"/><path class="ck" d="M186.033,310.128v19.644h2.094a95.73,95.73,0,0,1-3.558,16.026,50.375,50.375,0,0,1-2.424,6.15v-.677h-9.322v-74.82H185.05v-2.057a95.685,95.685,0,0,1,3.342,16.072h-2.359Z" transform="translate(-173.183 -276.811)"/><path class="cl" d="M186.033,311.748v19.141h1.718a93.241,93.241,0,0,1-3.467,15.615,49.079,49.079,0,0,1-2.362,5.991q-.635,1.323-1.31,2.456v-2.058h-7.788v-74.82h11.929V276.93a93.191,93.191,0,0,1,3.256,15.66h-1.976Z" transform="translate(-173.183 -278.433)"/><path class="cm" d="M186.033,313.368v18.637h1.341a90.79,90.79,0,0,1-3.376,15.2,47.837,47.837,0,0,1-2.3,5.834q-.618,1.287-1.275,2.391v-.918h-7.6V279.7h11.631v-.23a90.793,90.793,0,0,1,3.171,15.248h-1.592Z" transform="translate(-173.183 -280.056)"/><path class="cn" d="M188.286,309.631c-.086,12.87-1.829,24.51-4.575,32.926a34.183,34.183,0,0,1-4.791,9.956v-1.731h-6.1v-74.82h10.3V273.63q.541,1.428,1.035,3.015C186.788,285.1,188.373,296.761,188.286,309.631Z" transform="translate(-173.183 -276.322)"/><path class="co" d="M187.874,311.4c-.084,12.512-1.778,23.83-4.448,32.012a33.24,33.24,0,0,1-4.658,9.68v-.538h-5.945v-74.82h10.028V276.4q.526,1.389,1.006,2.931C186.417,287.548,187.958,298.887,187.874,311.4Z" transform="translate(-173.183 -278.093)"/><path class="cp" d="M187.461,313.169c-.082,12.155-1.727,23.149-4.321,31.1a32.284,32.284,0,0,1-4.525,9.4,10.539,10.539,0,0,1-2.652,2.547v-1.891h-3.14v-74.82h9.759v-.337q.51,1.349.977,2.848C186.046,290,187.543,301.014,187.461,313.169Z" transform="translate(-173.183 -279.866)"/><path class="cq" d="M187.048,310.555c-.159,23.6-6.387,42.682-13.911,42.631v-1.471h-.314v-74.82h8.458v-1.807a42.662,42.662,0,0,1,1.981,5.23C185.675,288.066,187.128,298.757,187.048,310.555Z" transform="translate(-173.183 -277.255)"/><path class="ca" d="M182.489,312.456c-.154,22.88-6.194,41.388-13.49,41.339a4.894,4.894,0,0,1-2.657-.859h2.334V278.8H176.9v-.735a41.315,41.315,0,0,1,1.921,5.072C181.158,290.649,182.566,301.016,182.489,312.456Z" transform="translate(-169.037 -279.159)"/><path class="cr" d="M182.239,310.775c-.149,22.165-6,40.095-13.067,40.047a4.739,4.739,0,0,1-2.574-.833h2.242V277.12h6.94v-1.68q.538.93,1.042,2.017a40.047,40.047,0,0,1,1.861,4.913C180.949,289.649,182.314,299.692,182.239,310.775Z" transform="translate(-169.2 -277.48)"/><path class="cs" d="M181.989,309.873c-.144,21.45-5.806,38.8-12.646,38.756a4.593,4.593,0,0,1-2.491-.806H169v-71.6h5.664v-2.186a28.486,28.486,0,0,1,3.88,8.35C180.741,289.429,182.061,299.149,181.989,309.873Z" transform="translate(-169.363 -276.582)"/><path class="cf" d="M181.739,311.988c-.14,20.735-5.613,37.508-12.225,37.464a4.437,4.437,0,0,1-2.408-.779h2.059V278.339h5.5v-.994a27.535,27.535,0,0,1,3.751,8.072C180.533,292.226,181.809,301.62,181.739,311.988Z" transform="translate(-169.526 -278.699)"/><path class="ct" d="M181.49,310.324c-.135,20.02-5.42,36.215-11.8,36.172a4.284,4.284,0,0,1-2.325-.752h1.967V276.678H172.5v-1.929a8.679,8.679,0,0,1,2.156,2.127,26.571,26.571,0,0,1,3.622,7.793C180.325,291.243,181.557,300.314,181.49,310.324Z" transform="translate(-169.689 -277.038)"/><path class="cu" d="M181.24,311.285c-.13,19.3-5.226,34.921-11.382,34.879a4.131,4.131,0,0,1-2.241-.725h1.875v-67.8h.838v-1.386C176.486,276.3,181.37,291.98,181.24,311.285Z" transform="translate(-169.852 -278.001)"/><path class="cv" d="M180.991,313.583c-.125,18.59-5.032,33.628-10.96,33.588a3.975,3.975,0,0,1-2.159-.7h1.783V280.519h-1.339a3.976,3.976,0,0,1,2.168-.669C176.412,279.889,181.116,294.992,180.991,313.583Z" transform="translate(-170.015 -280.301)"/><path class="cw" d="M180.74,315.879c-.12,17.875-4.839,32.334-10.538,32.3a3.821,3.821,0,0,1-2.076-.671h1.692V284.087h-1.264a3.826,3.826,0,0,1,2.085-.643C176.338,283.482,180.861,298,180.74,315.879Z" transform="translate(-170.178 -282.601)"/><path class="cx" d="M180.49,318.176c-.116,17.16-4.645,31.041-10.117,31a3.671,3.671,0,0,1-1.992-.645h1.6v-60.88h-1.19a3.667,3.667,0,0,1,2-.617C176.264,287.076,180.606,301.016,180.49,318.176Z" transform="translate(-170.341 -284.901)"/><path class="cy" d="M180.241,320.473c-.111,16.445-4.451,29.748-9.7,29.712a3.515,3.515,0,0,1-1.909-.617h1.508V291.225h-1.115a3.521,3.521,0,0,1,1.918-.592C176.191,290.668,180.352,304.028,180.241,320.473Z" transform="translate(-170.504 -287.201)"/><path class="cz" d="M179.991,322.771c-.106,15.73-4.258,28.454-9.274,28.42a3.363,3.363,0,0,1-1.826-.591h1.416V294.794h-1.04a3.364,3.364,0,0,1,1.834-.566C176.117,294.261,180.1,307.041,179.991,322.771Z" transform="translate(-170.667 -289.501)"/><path class="da" d="M179.741,325.068c-.1,15.015-4.065,27.161-8.852,27.128a3.217,3.217,0,0,1-1.744-.564h1.325V298.363H169.5a3.212,3.212,0,0,1,1.751-.541C176.043,297.854,179.842,310.052,179.741,325.068Z" transform="translate(-170.83 -291.8)"/><path class="db" d="M177.328,327.365c-.1,14.3-3.871,25.868-8.431,25.837a3.059,3.059,0,0,1-1.66-.537h1.233V303.43h-2.451a4.234,4.234,0,0,1,3.227-2.013C173.806,301.447,177.424,313.065,177.328,327.365Z" transform="translate(-168.83 -294.101)"/><path class="dc" d="M177.186,329.661c-.091,13.585-3.677,24.575-8.009,24.545a2.911,2.911,0,0,1-1.577-.51h1.141V306.923h-2.3a4.022,4.022,0,0,1,3.066-1.912C173.84,305.04,177.277,316.076,177.186,329.661Z" transform="translate(-169.1 -296.4)"/><path class="dd" d="M176.53,331.958c-.086,12.87-3.484,23.281-7.587,23.253a3.812,3.812,0,0,1-2.88-1.851H168.5V310.417h-2.146a3.811,3.811,0,0,1,2.9-1.812C173.36,308.633,176.616,319.088,176.53,331.958Z" transform="translate(-168.857 -298.7)"/><path class="de" d="M176.417,334.255c-.082,12.155-3.29,21.988-7.166,21.962a3.6,3.6,0,0,1-2.72-1.748H168.8V313.911H166.8a3.6,3.6,0,0,1,2.743-1.711C173.423,312.226,176.5,322.1,176.417,334.255Z" transform="translate(-169.157 -301)"/><path class="df" d="M176.3,336.553c-.077,11.44-3.1,20.694-6.745,20.669a3.387,3.387,0,0,1-2.56-1.645h2.1V317.4h-1.84a3.388,3.388,0,0,1,2.582-1.611C173.486,315.818,176.381,325.113,176.3,336.553Z" transform="translate(-169.457 -303.299)"/><path class="dg" d="M176.191,338.85c-.072,10.725-2.9,19.4-6.323,19.378a3.175,3.175,0,0,1-2.4-1.542H169.4V320.9h-1.687a3.175,3.175,0,0,1,2.42-1.51C173.549,319.412,176.263,328.125,176.191,338.85Z" transform="translate(-169.757 -305.6)"/><path class="dh" d="M176.078,341.147c-.068,10.01-2.71,18.107-5.9,18.086a2.965,2.965,0,0,1-2.24-1.44h1.76v-33.4h-1.535a2.965,2.965,0,0,1,2.259-1.409C173.612,323,176.145,331.137,176.078,341.147Z" transform="translate(-170.056 -307.899)"/><path class="di" d="M175.965,343.444c-.062,9.295-2.516,16.814-5.48,16.794a2.754,2.754,0,0,1-2.08-1.337H170V327.886h-1.382a2.751,2.751,0,0,1,2.1-1.309C173.676,326.6,176.028,334.149,175.965,343.444Z" transform="translate(-170.356 -310.199)"/><path class="di" d="M175.851,345.741c-.058,8.58-2.322,15.521-5.058,15.5a2.541,2.541,0,0,1-1.92-1.234H170.3V331.38h-1.23A2.541,2.541,0,0,1,171,330.172C173.738,330.19,175.909,337.161,175.851,345.741Z" transform="translate(-170.656 -312.499)"/><path class="di" d="M175.739,348.038c-.053,7.865-2.129,14.227-4.637,14.21a2.329,2.329,0,0,1-1.76-1.131H170.6V334.874h-1.077a2.329,2.329,0,0,1,1.775-1.107C173.8,333.783,175.792,340.173,175.739,348.038Z" transform="translate(-170.956 -314.799)"/><path class="dj" d="M173.328,350.335c-.048,7.15-1.936,12.934-4.215,12.918-1.14-.008-2.162-1.464-2.893-3.811H168.6V341.133h-2.255c.763-2.338,1.8-3.78,2.945-3.772C171.567,337.376,173.376,343.185,173.328,350.335Z" transform="translate(-168.958 -317.099)"/><path class="dj" d="M173.444,352.632c-.044,6.435-1.742,11.64-3.794,11.627-1.026-.007-1.946-1.318-2.6-3.431h2.081V344.35h-1.97c.687-2.1,1.624-3.4,2.651-3.4C171.859,340.969,173.488,346.2,173.444,352.632Z" transform="translate(-169.487 -319.398)"/><path class="dj" d="M173.561,354.929c-.039,5.72-1.548,10.347-3.372,10.335-.912-.006-1.73-1.171-2.315-3.049h1.783V347.568h-1.684c.61-1.87,1.444-3.024,2.356-3.018C172.152,344.562,173.6,349.209,173.561,354.929Z" transform="translate(-170.017 -321.698)"/><path class="dk" d="M172.25,357.226c-.034,5.005-1.355,9.054-2.951,9.043s-2.862-4.077-2.828-9.082,1.355-9.054,2.951-9.043S172.284,352.221,172.25,357.226Z" transform="translate(-169.118 -323.998)"/><path class="dk" d="M172.571,359.523c-.029,4.29-1.162,7.761-2.529,7.751s-2.453-3.494-2.424-7.784,1.161-7.761,2.529-7.751S172.6,355.233,172.571,359.523Z" transform="translate(-169.852 -326.298)"/><path class="dk" d="M172.891,361.82c-.024,3.575-.968,6.467-2.108,6.459s-2.044-2.912-2.02-6.487.968-6.467,2.108-6.459S172.915,358.245,172.891,361.82Z" transform="translate(-170.585 -328.598)"/><path class="dk" d="M173.212,364.118c-.019,2.86-.774,5.173-1.686,5.167s-1.636-2.33-1.616-5.19.774-5.173,1.686-5.167S173.231,361.257,173.212,364.118Z" transform="translate(-171.319 -330.898)"/><path class="dk" d="M173.532,366.414c-.014,2.145-.581,3.88-1.265,3.875s-1.227-1.747-1.212-3.892.581-3.88,1.265-3.875S173.547,364.269,173.532,366.414Z" transform="translate(-172.052 -333.197)"/><path class="dk" d="M173.853,368.712c-.01,1.43-.387,2.587-.843,2.584s-.818-1.164-.808-2.595.387-2.587.843-2.583S173.862,367.282,173.853,368.712Z" transform="translate(-172.785 -335.498)"/><path class="dk" d="M174.174,371.008c-.005.715-.194,1.293-.422,1.292s-.409-.582-.4-1.3.193-1.293.421-1.292S174.179,370.293,174.174,371.008Z" transform="translate(-173.519 -337.797)"/></g></g><path class="dl" d="M64.745,178.8l91.909-70.056L248.562,178.8h-31.31v74.1H96.056V178.8Zm39.287-7.976v74.1H209.276v-74.1h15.666l-68.288-52.051L88.366,170.822Z" transform="translate(-64.745 -108.742)"/></svg>