<svg xmlns="http://www.w3.org/2000/svg" width="39.963" height="25.729" viewBox="0 0 39.963 25.729"><defs><style>.a{fill:#008c44;}.b{fill:#fcda5f;}</style></defs><rect class="a" width="21.989" height="8.861" transform="translate(15.299 14.379)"/><g transform="translate(4.709 3.885)"><path class="b" d="M-77.087,69.392v4.6A2.35,2.35,0,0,1-77.8,75.8a2.755,2.755,0,0,1-1.958.667,2.787,2.787,0,0,1-1.941-.648,2.309,2.309,0,0,1-.733-1.777V69.392H-81V74a1.33,1.33,0,0,0,.328,1,1.261,1.261,0,0,0,.908.315q1.212,0,1.232-1.276V69.392Z" transform="translate(82.436 -69.295)"/><path class="b" d="M-70.378,74.524a.739.739,0,0,0-.287-.626,3.74,3.74,0,0,0-1.036-.459,7.44,7.44,0,0,1-1.183-.477,1.934,1.934,0,0,1-1.189-1.729,1.687,1.687,0,0,1,.319-1.01,2.076,2.076,0,0,1,.916-.692,3.437,3.437,0,0,1,1.339-.25,3.142,3.142,0,0,1,1.332.271,2.126,2.126,0,0,1,.908.765,1.993,1.993,0,0,1,.323,1.121h-1.437a.943.943,0,0,0-.3-.745,1.246,1.246,0,0,0-.849-.265,1.322,1.322,0,0,0-.819.223.7.7,0,0,0-.292.587.672.672,0,0,0,.343.57,3.838,3.838,0,0,0,1.008.43,4.386,4.386,0,0,1,1.788.916,1.822,1.822,0,0,1,.56,1.362,1.679,1.679,0,0,1-.685,1.421,3,3,0,0,1-1.845.515,3.551,3.551,0,0,1-1.467-.3,2.31,2.31,0,0,1-1.008-.807,2.063,2.063,0,0,1-.348-1.189h1.443q0,1.156,1.38,1.156a1.346,1.346,0,0,0,.8-.209A.68.68,0,0,0-70.378,74.524Z" transform="translate(81.309 -69.28)"/><path class="b" d="M-66.037,76.369V69.392h2.147a3.271,3.271,0,0,1,1.647.414,2.9,2.9,0,0,1,1.133,1.18,3.642,3.642,0,0,1,.407,1.738v.321a3.656,3.656,0,0,1-.4,1.73,2.866,2.866,0,0,1-1.129,1.174,3.272,3.272,0,0,1-1.643.421Zm1.438-5.812v4.658h.695a1.561,1.561,0,0,0,1.289-.552,2.493,2.493,0,0,0,.456-1.577v-.37a2.529,2.529,0,0,0-.441-1.612,1.555,1.555,0,0,0-1.289-.548Z" transform="translate(80.168 -69.295)"/></g><path class="b" d="M-77.138,78.622h-6.829a2.846,2.846,0,0,1-2.843-2.843V68.7a2.846,2.846,0,0,1,2.843-2.843H-62.95A2.845,2.845,0,0,1-60.108,68.7v6.311h1.091V68.7a3.938,3.938,0,0,0-3.933-3.933H-83.967A3.938,3.938,0,0,0-87.9,68.7v7.074a3.938,3.938,0,0,0,3.934,3.933h6.634A5,5,0,0,1-77.138,78.622Z" transform="translate(87.901 -64.772)"/><g transform="translate(12.17 11.88)"><path class="b" d="M-49.074,83.9h-1.318v2.19h1.285a1.269,1.269,0,0,0,.87-.268.979.979,0,0,0,.3-.767,1.153,1.153,0,0,0-.3-.829A1.134,1.134,0,0,0-49.074,83.9Z" transform="translate(70.544 -79.296)"/><path class="b" d="M-57.875,83.813a1.282,1.282,0,0,0-1.117.564,2.9,2.9,0,0,0-.4,1.651v.34A2.975,2.975,0,0,0-59,88.026a1.278,1.278,0,0,0,1.131.589,1.268,1.268,0,0,0,1.112-.568,2.962,2.962,0,0,0,.393-1.656v-.34a2.935,2.935,0,0,0-.393-1.667A1.28,1.28,0,0,0-57.875,83.813Z" transform="translate(71.788 -79.285)"/><path class="b" d="M-48.661,78.558H-71.1a2.677,2.677,0,0,0-2.677,2.677v8.5A2.677,2.677,0,0,0-71.1,92.408h22.44a2.677,2.677,0,0,0,2.677-2.677v-8.5A2.677,2.677,0,0,0-48.661,78.558Zm-19.582,8.813a1.2,1.2,0,0,0,1.08.523,1.424,1.424,0,0,0,.994-.3,1.376,1.376,0,0,0,.377-.942h1.438a2.468,2.468,0,0,1-.832,1.773,2.92,2.92,0,0,1-1.978.647,2.63,2.63,0,0,1-2.111-.9,3.712,3.712,0,0,1-.769-2.48v-.427a4.173,4.173,0,0,1,.355-1.773,2.65,2.65,0,0,1,1.013-1.176,2.83,2.83,0,0,1,1.531-.41,2.839,2.839,0,0,1,1.946.647,2.652,2.652,0,0,1,.853,1.816h-1.438a1.455,1.455,0,0,0-.377-.98,1.388,1.388,0,0,0-.984-.3,1.221,1.221,0,0,0-1.076.515,2.886,2.886,0,0,0-.366,1.6v.527A3.081,3.081,0,0,0-68.243,87.371Zm11.351-1.73a4.207,4.207,0,0,1-.365,1.807,2.746,2.746,0,0,1-1.043,1.2,2.886,2.886,0,0,1-1.555.421,2.9,2.9,0,0,1-1.548-.417,2.774,2.774,0,0,1-1.055-1.191,4.1,4.1,0,0,1-.378-1.781v-.345a4.187,4.187,0,0,1,.371-1.814,2.763,2.763,0,0,1,1.05-1.2,2.885,2.885,0,0,1,1.55-.42,2.886,2.886,0,0,1,1.551.42,2.767,2.767,0,0,1,1.049,1.2,4.173,4.173,0,0,1,.372,1.81Zm6.471.281a2.928,2.928,0,0,1-1.943.592h-1.261v2.459h-1.437V81.994h2.722a3.139,3.139,0,0,1,1.382.288,2.123,2.123,0,0,1,.919.817,2.282,2.282,0,0,1,.321,1.206A2,2,0,0,1-50.422,85.921Z" transform="translate(73.778 -78.558)"/></g><path class="b" d="M-78.576,86.9a.544.544,0,0,0-.74-.216.546.546,0,0,0-.216.74l1.19,2.176c-3.221-.363-5.127-2.54-5.127-6.014a.545.545,0,0,0-.545-.545.545.545,0,0,0-.545.545c0,3.816,2.047,6.381,5.444,7.019L-81,91.711a.547.547,0,0,0-.195.747.545.545,0,0,0,.471.27.552.552,0,0,0,.275-.075l3.8-2.23Z" transform="translate(87.439 -67.298)"/><path class="b" d="M-49.776,67.663l1.887-1.106a.545.545,0,0,0,.194-.746.545.545,0,0,0-.746-.195l-3.8,2.23,1.927,3.522a.545.545,0,0,0,.478.284.538.538,0,0,0,.261-.067.545.545,0,0,0,.217-.74l-1.191-2.176c3.222.362,5.129,2.539,5.129,6.014a.545.545,0,0,0,.545.545.545.545,0,0,0,.545-.545C-44.331,70.866-46.377,68.3-49.776,67.663Z" transform="translate(82.97 -64.878)"/></svg>