<svg xmlns="http://www.w3.org/2000/svg" width="64.198" height="31.814" viewBox="0 0 64.198 31.814"><defs><style>.a{fill:#fcda5f;}.b{fill:#008c44;}</style></defs><g transform="translate(-192.122 -121.007)"><path class="a" d="M199.512,130.49v3.164h-1.483v-8.532h3.264a3.3,3.3,0,0,1,2.271.745,2.507,2.507,0,0,1,.84,1.971,2.42,2.42,0,0,1-.823,1.953,3.457,3.457,0,0,1-2.306.7Zm0-1.2h1.781a1.755,1.755,0,0,0,1.207-.372,1.368,1.368,0,0,0,.416-1.075,1.479,1.479,0,0,0-.422-1.105,1.628,1.628,0,0,0-1.16-.424h-1.822Z"/><path class="a" d="M205.565,125.667a.756.756,0,0,1,.208-.545.784.784,0,0,1,.594-.216.8.8,0,0,1,.6.216.75.75,0,0,1,.211.545.73.73,0,0,1-.211.536.8.8,0,0,1-.6.214.787.787,0,0,1-.594-.214A.735.735,0,0,1,205.565,125.667Zm1.511,7.987h-1.424v-6.34h1.424Z"/><path class="a" d="M211.418,133.771a2.943,2.943,0,0,1-2.194-.853,3.09,3.09,0,0,1-.841-2.27v-.176a3.8,3.8,0,0,1,.366-1.7,2.786,2.786,0,0,1,1.028-1.163,2.716,2.716,0,0,1,1.477-.416,2.488,2.488,0,0,1,2,.826,3.492,3.492,0,0,1,.706,2.338v.574h-4.143a1.9,1.9,0,0,0,.525,1.242,1.571,1.571,0,0,0,1.157.457,1.93,1.93,0,0,0,1.594-.791l.767.733a2.559,2.559,0,0,1-1.016.881A3.185,3.185,0,0,1,211.418,133.771Zm-.17-5.432a1.2,1.2,0,0,0-.946.41,2.129,2.129,0,0,0-.46,1.143h2.713v-.106a1.73,1.73,0,0,0-.381-1.081A1.19,1.19,0,0,0,211.248,128.339Z"/><path class="a" d="M218.619,131.931a.645.645,0,0,0-.313-.58,3.343,3.343,0,0,0-1.04-.352,5.321,5.321,0,0,1-1.213-.386,1.62,1.62,0,0,1-1.067-1.5,1.69,1.69,0,0,1,.692-1.371,2.735,2.735,0,0,1,1.758-.55,2.846,2.846,0,0,1,1.837.562,1.787,1.787,0,0,1,.7,1.459h-1.424a.88.88,0,0,0-.3-.683,1.169,1.169,0,0,0-.808-.272,1.258,1.258,0,0,0-.765.217.684.684,0,0,0-.3.58.578.578,0,0,0,.275.51,3.8,3.8,0,0,0,1.114.366,5.266,5.266,0,0,1,1.315.439,1.851,1.851,0,0,1,.709.613,1.562,1.562,0,0,1,.232.867,1.655,1.655,0,0,1-.709,1.386,3.028,3.028,0,0,1-1.858.53,3.284,3.284,0,0,1-1.388-.281,2.292,2.292,0,0,1-.95-.774,1.835,1.835,0,0,1-.34-1.06h1.383a1.006,1.006,0,0,0,.381.776,1.479,1.479,0,0,0,.932.272,1.442,1.442,0,0,0,.855-.213A.662.662,0,0,0,218.619,131.931Z"/><rect class="a" width="47.765" height="17.649" rx="4" transform="translate(208.554 135.172)"/><path class="a" d="M202.571,145.213a.633.633,0,0,0-1.11.608l1.381,2.525c-3.738-.421-5.95-2.947-5.95-6.98a.633.633,0,0,0-1.266,0c0,4.429,2.375,7.406,6.318,8.146l-2.189,1.283a.633.633,0,0,0,.32,1.179.641.641,0,0,0,.32-.086l4.412-2.588Z"/><path class="a" d="M232.007,123.5l2.189-1.283a.633.633,0,0,0-.64-1.092l-4.412,2.588,2.236,4.087a.632.632,0,0,0,.555.329.625.625,0,0,0,.3-.078.632.632,0,0,0,.251-.859l-1.381-2.525c3.739.42,5.951,2.946,5.951,6.979a.633.633,0,0,0,1.266,0C238.325,127.214,235.95,124.237,232.007,123.5Z"/><path class="b" d="M215.136,139.526l2.789,6.96,2.789-6.96h1.459v8.531h-1.125v-3.322l.1-3.586-2.8,6.908h-.862l-2.795-6.891.112,3.569v3.322h-1.125v-8.531Z"/><path class="b" d="M226.98,148.174a2.77,2.77,0,0,1-2.1-.847,3.141,3.141,0,0,1-.808-2.264v-.2a3.807,3.807,0,0,1,.36-1.684,2.806,2.806,0,0,1,1.008-1.16,2.528,2.528,0,0,1,1.4-.419,2.373,2.373,0,0,1,1.922.814,3.528,3.528,0,0,1,.686,2.332v.451h-4.295a2.25,2.25,0,0,0,.548,1.515,1.72,1.72,0,0,0,1.333.577,1.888,1.888,0,0,0,.972-.234,2.445,2.445,0,0,0,.7-.621l.662.515A2.662,2.662,0,0,1,226.98,148.174Zm-.135-5.684a1.447,1.447,0,0,0-1.1.478,2.318,2.318,0,0,0-.551,1.339h3.176v-.082a2.069,2.069,0,0,0-.446-1.281A1.363,1.363,0,0,0,226.845,142.49Z"/><path class="b" d="M232.538,140.182v1.535h1.183v.838h-1.183v3.936a.88.88,0,0,0,.158.573.665.665,0,0,0,.539.19,2.616,2.616,0,0,0,.516-.07v.874a3.2,3.2,0,0,1-.832.116,1.352,1.352,0,0,1-1.1-.439,1.89,1.89,0,0,1-.369-1.249v-3.931H230.3v-.838h1.155v-1.535Z"/><path class="b" d="M238.411,142.69a3.178,3.178,0,0,0-.533-.041,1.427,1.427,0,0,0-1.447.908v4.5h-1.084v-6.34H236.4l.018.732a1.687,1.687,0,0,1,1.512-.849,1.1,1.1,0,0,1,.48.082Z"/><path class="b" d="M239.363,144.828a3.75,3.75,0,0,1,.366-1.676,2.731,2.731,0,0,1,1.02-1.148,2.777,2.777,0,0,1,1.491-.4,2.678,2.678,0,0,1,2.1.9,3.451,3.451,0,0,1,.8,2.385v.076a3.781,3.781,0,0,1-.354,1.661,2.687,2.687,0,0,1-1.014,1.146,2.808,2.808,0,0,1-1.514.41,2.665,2.665,0,0,1-2.089-.9,3.426,3.426,0,0,1-.8-2.373Zm1.09.129a2.716,2.716,0,0,0,.489,1.694,1.659,1.659,0,0,0,2.622-.009,2.968,2.968,0,0,0,.486-1.814,2.706,2.706,0,0,0-.5-1.69,1.572,1.572,0,0,0-1.315-.648,1.556,1.556,0,0,0-1.295.639A2.945,2.945,0,0,0,240.453,144.957Z"/><path class="b" d="M250.545,146.375a.8.8,0,0,0-.331-.682,3.173,3.173,0,0,0-1.154-.419,5.493,5.493,0,0,1-1.307-.422,1.864,1.864,0,0,1-.715-.586,1.4,1.4,0,0,1-.231-.809,1.642,1.642,0,0,1,.659-1.318,2.569,2.569,0,0,1,1.684-.539,2.648,2.648,0,0,1,1.749.556,1.766,1.766,0,0,1,.671,1.424h-1.089a.976.976,0,0,0-.378-.767,1.418,1.418,0,0,0-.953-.323,1.479,1.479,0,0,0-.925.258.812.812,0,0,0-.334.674.657.657,0,0,0,.31.592,3.811,3.811,0,0,0,1.122.381,5.85,5.85,0,0,1,1.316.433,1.913,1.913,0,0,1,.747.607,1.49,1.49,0,0,1,.243.864,1.623,1.623,0,0,1-.68,1.362,2.849,2.849,0,0,1-1.763.513,3.19,3.19,0,0,1-1.348-.27,2.186,2.186,0,0,1-.917-.752,1.814,1.814,0,0,1-.331-1.046h1.084a1.122,1.122,0,0,0,.436.864,1.7,1.7,0,0,0,1.076.319,1.747,1.747,0,0,0,.987-.249A.766.766,0,0,0,250.545,146.375Z"/><path class="a" d="M207.456,137.176H196.122a2.522,2.522,0,0,1-2.52-2.52v-9.649a2.523,2.523,0,0,1,2.52-2.52H221.97a2.523,2.523,0,0,1,2.519,2.52v8.685h1.481v-8.685a4,4,0,0,0-4-4H196.122a4,4,0,0,0-4,4v9.649a4,4,0,0,0,4,4H207.1A5.457,5.457,0,0,1,207.456,137.176Z"/></g></svg>