<svg xmlns="http://www.w3.org/2000/svg" width="46.376" height="30.31" viewBox="0 0 46.376 30.31"><defs><style>.a{fill:#fcda5f;}.b{fill:#504741;}</style></defs><g transform="translate(-197.592 -274.612)"><rect class="a" width="25.517" height="10.283" transform="translate(215.346 291.298)"/><path class="b" d="M210.082,290.684h-7.926a3.3,3.3,0,0,1-3.3-3.3v-8.209a3.3,3.3,0,0,1,3.3-3.3h24.391a3.3,3.3,0,0,1,3.3,3.3V286.5h1.266v-7.324a4.57,4.57,0,0,0-4.564-4.564H202.156a4.569,4.569,0,0,0-4.564,4.564v8.209a4.57,4.57,0,0,0,4.564,4.565h7.7A5.809,5.809,0,0,1,210.082,290.684Z"/><path class="b" d="M207.877,298.16a.633.633,0,1,0-1.11.608l1.381,2.525c-3.738-.42-5.95-2.947-5.95-6.979a.633.633,0,1,0-1.266,0c0,4.428,2.375,7.4,6.318,8.145l-2.189,1.284a.633.633,0,0,0,.321,1.179.641.641,0,0,0,.319-.087l4.412-2.588Z"/><path class="b" d="M236.113,277.844l2.189-1.284a.633.633,0,0,0-.64-1.092l-4.412,2.588,2.236,4.087a.633.633,0,0,0,.555.329.625.625,0,0,0,.3-.078.633.633,0,0,0,.252-.859l-1.382-2.525c3.739.42,5.951,2.946,5.951,6.979a.633.633,0,0,0,1.266,0C242.431,281.561,240.056,278.584,236.113,277.844Z"/><path class="b" d="M209.119,284.633a2.863,2.863,0,0,1-.964,2.056,3.386,3.386,0,0,1-2.295.752,3.051,3.051,0,0,1-2.45-1.048,4.3,4.3,0,0,1-.892-2.879v-.495a4.854,4.854,0,0,1,.411-2.057,3.079,3.079,0,0,1,1.177-1.366,3.675,3.675,0,0,1,4.034.276,3.076,3.076,0,0,1,.99,2.107h-1.668a1.686,1.686,0,0,0-.437-1.137,1.613,1.613,0,0,0-1.143-.353,1.419,1.419,0,0,0-1.249.6,3.357,3.357,0,0,0-.425,1.855v.611a3.585,3.585,0,0,0,.4,1.919,1.392,1.392,0,0,0,1.254.607,1.65,1.65,0,0,0,1.154-.354,1.594,1.594,0,0,0,.437-1.092Z"/><path class="b" d="M217.778,283.464a4.885,4.885,0,0,1-.423,2.1,3.176,3.176,0,0,1-1.209,1.39,3.569,3.569,0,0,1-3.6.005,3.2,3.2,0,0,1-1.224-1.381,4.745,4.745,0,0,1-.439-2.067v-.4a4.859,4.859,0,0,1,.431-2.105,3.208,3.208,0,0,1,1.217-1.4,3.575,3.575,0,0,1,3.6,0,3.216,3.216,0,0,1,1.218,1.4,4.857,4.857,0,0,1,.431,2.1Zm-1.691-.366a3.412,3.412,0,0,0-.456-1.936,1.61,1.61,0,0,0-2.6-.008,3.368,3.368,0,0,0-.462,1.915v.395a3.453,3.453,0,0,0,.456,1.925,1.486,1.486,0,0,0,1.313.684,1.469,1.469,0,0,0,1.29-.659,3.421,3.421,0,0,0,.456-1.922Z"/><path class="b" d="M221.57,284.477v2.853H219.9v-8.1h3.159a3.657,3.657,0,0,1,1.6.333,2.462,2.462,0,0,1,1.065.948,2.645,2.645,0,0,1,.373,1.4,2.329,2.329,0,0,1-.815,1.878,3.4,3.4,0,0,1-2.255.687Zm0-1.352h1.491a1.464,1.464,0,0,0,1.009-.312,1.134,1.134,0,0,0,.348-.889,1.334,1.334,0,0,0-.351-.962,1.3,1.3,0,0,0-.968-.378H221.57Z"/><path class="b" d="M235.858,293.743h-.824v5.406h.807a1.814,1.814,0,0,0,1.5-.64,2.887,2.887,0,0,0,.528-1.83v-.429a2.935,2.935,0,0,0-.511-1.871A1.8,1.8,0,0,0,235.858,293.743Z"/><path class="b" d="M240.862,288.509H214.821a3.107,3.107,0,0,0-3.106,3.106v9.86a3.107,3.107,0,0,0,3.106,3.106h26.041a3.107,3.107,0,0,0,3.106-3.106v-9.86A3.107,3.107,0,0,0,240.862,288.509Zm-17.689,9.216a2.724,2.724,0,0,1-.832,2.1,3.2,3.2,0,0,1-2.271.774,3.237,3.237,0,0,1-2.253-.752,2.683,2.683,0,0,1-.851-2.063v-5.394h1.669v5.344a1.543,1.543,0,0,0,.381,1.16,1.462,1.462,0,0,0,1.054.365q1.407,0,1.429-1.481v-5.388h1.674Zm4.257-2.514a4.463,4.463,0,0,0,1.171.5,5.079,5.079,0,0,1,2.074,1.063,2.116,2.116,0,0,1,.651,1.58,1.945,1.945,0,0,1-.795,1.648,3.473,3.473,0,0,1-2.142.6,4.116,4.116,0,0,1-1.7-.343,2.683,2.683,0,0,1-1.171-.936,2.4,2.4,0,0,1-.4-1.38h1.674q0,1.341,1.6,1.341a1.559,1.559,0,0,0,.929-.242.788.788,0,0,0,.334-.676.855.855,0,0,0-.334-.726,4.33,4.33,0,0,0-1.2-.533,8.691,8.691,0,0,1-1.374-.554,2.245,2.245,0,0,1-1.379-2.007,1.963,1.963,0,0,1,.369-1.172,2.415,2.415,0,0,1,1.063-.8,3.994,3.994,0,0,1,1.555-.29,3.65,3.65,0,0,1,1.546.314,2.459,2.459,0,0,1,1.053.888,2.314,2.314,0,0,1,.376,1.3h-1.668a1.091,1.091,0,0,0-.351-.865,1.443,1.443,0,0,0-.984-.308,1.534,1.534,0,0,0-.951.259.814.814,0,0,0-.34.681A.782.782,0,0,0,227.43,295.211Zm12.126,1.418a4.242,4.242,0,0,1-.464,2.008,3.326,3.326,0,0,1-1.31,1.362,3.8,3.8,0,0,1-1.908.489h-2.508v-8.1h2.492a3.789,3.789,0,0,1,1.91.48,3.37,3.37,0,0,1,1.315,1.369,4.215,4.215,0,0,1,.473,2.017Z"/></g></svg>