<svg xmlns="http://www.w3.org/2000/svg" width="64.198" height="31.813" viewBox="0 0 64.198 31.813"><defs><style>.a{fill:#504741;}.b{fill:#fcda5f;}</style></defs><g transform="translate(-1063 -1046)"><g transform="translate(1068.908 1049.898)"><g transform="translate(0 0.217)"><path class="a" d="M115.84,108.85v3.164h-1.482v-8.531h3.263a3.3,3.3,0,0,1,2.271.745,2.5,2.5,0,0,1,.841,1.97,2.422,2.422,0,0,1-.824,1.954,3.461,3.461,0,0,1-2.305.7Zm0-1.2h1.781a1.753,1.753,0,0,0,1.207-.372,1.364,1.364,0,0,0,.416-1.075,1.471,1.471,0,0,0-.422-1.1,1.624,1.624,0,0,0-1.16-.425H115.84Z" transform="translate(-114.358 -103.483)"/></g><g transform="translate(7.535)"><path class="a" d="M121.893,104.028a.753.753,0,0,1,.208-.545.782.782,0,0,1,.594-.217.8.8,0,0,1,.6.217.747.747,0,0,1,.211.545.733.733,0,0,1-.211.536.805.805,0,0,1-.6.214.793.793,0,0,1-.594-.214A.738.738,0,0,1,121.893,104.028Zm1.511,7.986h-1.423v-6.34H123.4Z" transform="translate(-121.893 -103.266)"/></g><g transform="translate(10.353 2.291)"><path class="a" d="M127.746,112.131a2.946,2.946,0,0,1-2.194-.852,3.094,3.094,0,0,1-.841-2.271v-.176a3.8,3.8,0,0,1,.366-1.7,2.782,2.782,0,0,1,1.029-1.163,2.719,2.719,0,0,1,1.476-.416,2.488,2.488,0,0,1,2,.826,3.492,3.492,0,0,1,.706,2.338v.574h-4.142a1.9,1.9,0,0,0,.524,1.242,1.573,1.573,0,0,0,1.157.457,1.926,1.926,0,0,0,1.594-.791l.768.733a2.564,2.564,0,0,1-1.017.882A3.182,3.182,0,0,1,127.746,112.131Zm-.17-5.432a1.2,1.2,0,0,0-.946.411,2.122,2.122,0,0,0-.46,1.142h2.713v-.1a1.726,1.726,0,0,0-.381-1.081A1.188,1.188,0,0,0,127.576,106.7Z" transform="translate(-124.711 -105.557)"/></g><g transform="translate(16.746 2.291)"><path class="a" d="M134.947,110.291a.645.645,0,0,0-.313-.58,3.32,3.32,0,0,0-1.04-.351,5.367,5.367,0,0,1-1.213-.387,1.619,1.619,0,0,1-1.066-1.494,1.686,1.686,0,0,1,.691-1.371,2.729,2.729,0,0,1,1.758-.551,2.844,2.844,0,0,1,1.837.562,1.788,1.788,0,0,1,.7,1.459h-1.424a.877.877,0,0,0-.3-.682,1.164,1.164,0,0,0-.808-.273,1.265,1.265,0,0,0-.765.217.685.685,0,0,0-.3.58.577.577,0,0,0,.276.51,3.776,3.776,0,0,0,1.113.366,5.262,5.262,0,0,1,1.315.44,1.85,1.85,0,0,1,.709.612,1.554,1.554,0,0,1,.232.867,1.655,1.655,0,0,1-.709,1.386,3.028,3.028,0,0,1-1.858.53,3.283,3.283,0,0,1-1.388-.281,2.292,2.292,0,0,1-.95-.774,1.832,1.832,0,0,1-.339-1.06h1.382a1,1,0,0,0,.381.776,1.48,1.48,0,0,0,.932.273,1.442,1.442,0,0,0,.855-.214A.661.661,0,0,0,134.947,110.291Z" transform="translate(-131.104 -105.557)"/></g></g><g transform="translate(1079.432 1060.164)"><rect class="a" width="47.765" height="17.649" rx="4"/></g><g transform="translate(1066.504 1065.726)"><path class="a" d="M118.9,123.573a.633.633,0,0,0-1.11.608l1.381,2.525c-3.738-.42-5.95-2.947-5.95-6.979a.633.633,0,0,0-1.266,0c0,4.428,2.375,7.405,6.318,8.145l-2.189,1.284a.633.633,0,0,0,.321,1.179.641.641,0,0,0,.319-.087l4.412-2.588Z" transform="translate(-111.954 -119.094)"/></g><g transform="translate(1100.022 1046.026)"><path class="a" d="M148.335,101.857l2.189-1.284a.633.633,0,1,0-.64-1.092l-4.412,2.588,2.236,4.087a.633.633,0,0,0,.555.329.625.625,0,0,0,.3-.078.633.633,0,0,0,.252-.859l-1.382-2.525c3.739.42,5.951,2.946,5.951,6.979a.633.633,0,1,0,1.266,0C154.653,105.574,152.278,102.6,148.335,101.857Z" transform="translate(-145.472 -99.394)"/></g><g transform="translate(1084.561 1064.518)"><path class="b" d="M131.464,117.886l2.789,6.961,2.789-6.961H138.5v8.531h-1.125V123.1l.106-3.586-2.8,6.908h-.862l-2.795-6.891.112,3.569v3.322h-1.125v-8.531Z" transform="translate(-130.011 -117.886)"/><path class="b" d="M143.308,126.534a2.77,2.77,0,0,1-2.1-.846,3.141,3.141,0,0,1-.809-2.265v-.2a3.809,3.809,0,0,1,.36-1.685,2.813,2.813,0,0,1,1.008-1.16,2.538,2.538,0,0,1,1.4-.419,2.373,2.373,0,0,1,1.922.814,3.528,3.528,0,0,1,.686,2.332v.452h-4.3a2.25,2.25,0,0,0,.548,1.514,1.72,1.72,0,0,0,1.333.577,1.886,1.886,0,0,0,.972-.234,2.445,2.445,0,0,0,.7-.621l.662.516A2.662,2.662,0,0,1,143.308,126.534Zm-.135-5.683a1.446,1.446,0,0,0-1.1.477,2.321,2.321,0,0,0-.551,1.339H144.7v-.082a2.064,2.064,0,0,0-.445-1.28A1.362,1.362,0,0,0,143.173,120.851Z" transform="translate(-130.011 -117.886)"/><path class="b" d="M148.866,118.542v1.535h1.183v.838h-1.183v3.937a.883.883,0,0,0,.158.572.665.665,0,0,0,.539.19,2.615,2.615,0,0,0,.516-.07v.874a3.188,3.188,0,0,1-.832.116,1.349,1.349,0,0,1-1.1-.439,1.888,1.888,0,0,1-.369-1.248v-3.932h-1.154v-.838h1.154v-1.535Z" transform="translate(-130.011 -117.886)"/><path class="b" d="M154.739,121.05a3.278,3.278,0,0,0-.533-.041,1.429,1.429,0,0,0-1.447.908v4.5h-1.084v-6.34h1.055l.017.733a1.688,1.688,0,0,1,1.512-.85,1.1,1.1,0,0,1,.48.082Z" transform="translate(-130.011 -117.886)"/><path class="b" d="M155.691,123.189a3.744,3.744,0,0,1,.366-1.676,2.734,2.734,0,0,1,1.02-1.149,2.777,2.777,0,0,1,1.491-.4,2.677,2.677,0,0,1,2.1.9,3.451,3.451,0,0,1,.8,2.385v.076a3.785,3.785,0,0,1-.354,1.662,2.684,2.684,0,0,1-1.014,1.145,2.8,2.8,0,0,1-1.514.41,2.668,2.668,0,0,1-2.089-.9,3.434,3.434,0,0,1-.8-2.373Zm1.09.128a2.714,2.714,0,0,0,.489,1.694,1.659,1.659,0,0,0,2.622-.009,2.967,2.967,0,0,0,.486-1.813,2.709,2.709,0,0,0-.5-1.691,1.647,1.647,0,0,0-2.61-.009A2.945,2.945,0,0,0,156.781,123.317Z" transform="translate(-130.011 -117.886)"/><path class="b" d="M166.873,124.735a.8.8,0,0,0-.331-.682,3.184,3.184,0,0,0-1.154-.419,5.449,5.449,0,0,1-1.307-.422,1.863,1.863,0,0,1-.715-.586,1.4,1.4,0,0,1-.231-.809,1.645,1.645,0,0,1,.659-1.318,2.576,2.576,0,0,1,1.685-.539,2.652,2.652,0,0,1,1.749.557,1.767,1.767,0,0,1,.671,1.423h-1.09a.979.979,0,0,0-.378-.767,1.416,1.416,0,0,0-.952-.322,1.486,1.486,0,0,0-.926.257.812.812,0,0,0-.334.674.657.657,0,0,0,.31.592,3.81,3.81,0,0,0,1.122.381,5.846,5.846,0,0,1,1.316.434,1.911,1.911,0,0,1,.747.606,1.49,1.49,0,0,1,.243.864,1.621,1.621,0,0,1-.68,1.363,2.855,2.855,0,0,1-1.763.512,3.205,3.205,0,0,1-1.348-.269,2.2,2.2,0,0,1-.917-.753,1.812,1.812,0,0,1-.331-1.046H164a1.123,1.123,0,0,0,.437.864,1.69,1.69,0,0,0,1.075.319,1.747,1.747,0,0,0,.987-.249A.764.764,0,0,0,166.873,124.735Z" transform="translate(-130.011 -117.886)"/></g><g transform="translate(1063 1046)"><path class="a" d="M123.784,115.537H112.45a2.523,2.523,0,0,1-2.52-2.52v-9.649a2.522,2.522,0,0,1,2.52-2.52H138.3a2.523,2.523,0,0,1,2.52,2.52v8.684h1.48v-8.684a4,4,0,0,0-4-4H112.45a4,4,0,0,0-4,4v9.649a4,4,0,0,0,4,4h10.979A5.411,5.411,0,0,1,123.784,115.537Z" transform="translate(-108.45 -99.368)"/></g></g></svg>