<svg xmlns="http://www.w3.org/2000/svg" width="17.674" height="16.871" viewBox="0 0 17.674 16.871"><defs><style>.a{fill:#fff;}</style></defs><path class="a" d="M17.419,17.189l-4-3.845a6.981,6.981,0,0,0,1.571-4.4,7.359,7.359,0,0,0-7.494-7.2A7.359,7.359,0,0,0,0,8.941a7.359,7.359,0,0,0,7.494,7.2,7.648,7.648,0,0,0,4.708-1.6l3.989,3.832a.893.893,0,0,0,1.228,0A.811.811,0,0,0,17.419,17.189ZM1.738,8.941A5.652,5.652,0,0,1,7.494,3.412,5.653,5.653,0,0,1,13.25,8.941a5.654,5.654,0,0,1-5.757,5.53A5.654,5.654,0,0,1,1.738,8.941Z" transform="translate(0 -1.742)"/></svg>